<svg width="180" height="180" viewBox="0 0 180 180" fill="none" xmlns="http://www.w3.org/2000/svg">
  <rect width="180" height="180" rx="42" fill="#0A0A0A"/>
  <path d="M49 92C49 69.3563 67.3563 51 90 51C112.644 51 131 69.3563 131 92C131 114.644 112.644 133 90 133H57.5C52.8056 133 49 129.194 49 124.5V92Z" fill="#F8FAFC"/>
  <path d="M65 92C65 78.1929 76.1929 67 90 67C103.807 67 115 78.1929 115 92C115 105.807 103.807 117 90 117H73.5C68.8056 117 65 113.194 65 108.5V92Z" fill="#10B981"/>
  <path d="M82 83L101 92L82 101V83Z" fill="#0A0A0A"/>
  <circle cx="124" cy="55" r="14" fill="#38BDF8"/>
</svg>
